HIERARCHY
ROOT Hips
{
	OFFSET -0.179506 -22.333345 2.821913
	CHANNELS 6 Xposition Yposition Zposition Zrotation Yrotation Xrotation 
	JOINT LeftUpLeg
	{
		OFFSET 6.951974 -9.140623 -0.681533
		CHANNELS 3 Zrotation Yrotation Xrotation
		JOINT LeftLeg
		{
			OFFSET 3.427654 -37.519855 -0.449580
			CHANNELS 3 Zrotation Yrotation Xrotation
			JOINT LeftFoot
			{
				OFFSET -1.359570 -39.796059 -4.369333
				CHANNELS 3 Zrotation Yrotation Xrotation
				JOINT LeftToe
				{
					OFFSET 2.635814 -5.579078 11.928840
					CHANNELS 3 Zrotation Yrotation Xrotation
					End Site
					{
						OFFSET 0.000000 0.000000 0.000000
					}
				}
			}
		}
	}
	JOINT RightUpLeg
	{
		OFFSET -6.767048 -9.052170 -0.431982
		CHANNELS 3 Zrotation Yrotation Xrotation
		JOINT RightLeg
		{
			OFFSET -3.829005 -38.256897 -0.885003
			CHANNELS 3 Zrotation Yrotation Xrotation
			JOINT RightFoot
			{
				OFFSET 1.577377 -39.841461 -4.231180
				CHANNELS 3 Zrotation Yrotation Xrotation
				JOINT RightToe
				{
					OFFSET -2.537174 -4.814398 12.334795
					CHANNELS 3 Zrotation Yrotation Xrotation
					End Site
					{
						OFFSET 0.000000 0.000000 0.000000
					}
				}
			}
		}
	}
	JOINT Spine
	{
		OFFSET -0.253288 10.896323 -2.669631
		CHANNELS 3 Zrotation Yrotation Xrotation
		JOINT Spine1
		{
			OFFSET 0.548704 13.518043 0.109247
			CHANNELS 3 Zrotation Yrotation Xrotation
			JOINT Spine2
			{
				OFFSET 0.145701 5.292222 2.542457
				CHANNELS 3 Zrotation Yrotation Xrotation
				JOINT Neck
				{
					OFFSET -0.277840 21.387037 -4.285703
					CHANNELS 3 Zrotation Yrotation Xrotation
					JOINT Head
					{
						OFFSET 0.515184 6.496960 5.134897
						CHANNELS 3 Zrotation Yrotation Xrotation
						End Site
						{
							OFFSET 0.000000 0.000000 0.000000
						}
					}
				}
				JOINT LeftShoulder
				{
					OFFSET 7.884473 12.174932 -3.408961
					CHANNELS 3 Zrotation Yrotation Xrotation
					JOINT LeftArm
					{
						OFFSET 9.097692 3.046888 -0.886815
						CHANNELS 3 Zrotation Yrotation Xrotation
						JOINT LeftForeArm
						{
							OFFSET 25.961220 -1.277207 -2.745643
							CHANNELS 3 Zrotation Yrotation Xrotation
							JOINT LeftHand
							{
								OFFSET 24.923361 0.898606 -0.117091
								CHANNELS 3 Zrotation Yrotation Xrotation
								End Site
								{
									OFFSET 0.000000 0.000000 0.000000
								}
							}
						}
					}
				}
				JOINT RightShoulder
				{
					OFFSET -8.175920 11.883285 -3.861528
					CHANNELS 3 Zrotation Yrotation Xrotation
					JOINT RightArm
					{
						OFFSET -9.601238 3.255117 -0.914307
						CHANNELS 3 Zrotation Yrotation Xrotation
						JOINT RightForeArm
						{
							OFFSET -25.374195 -1.332924 -2.140099
							CHANNELS 3 Zrotation Yrotation Xrotation
							JOINT RightHand
							{
								OFFSET -25.529810 0.777228 -0.555919
								CHANNELS 3 Zrotation Yrotation Xrotation
								End Site
								{
									OFFSET 0.000000 0.000000 0.000000
								}
							}
						}
					}
				}
			}
		}
	}
}
MOTION
Frames: 16
Frame Time: 0.033333
264.891571 -222.958221 83.459969 -117.895171 -4.750540 95.320149 -1.451350 -15.767300 -32.182685 -16.432357 5.678674 50.049088 12.145095 6.561948 -26.913526 nan nan nan 2.471185 1.703763 -13.885108 -6.221537 -13.642056 107.547962 2.603804 -9.616747 -12.828056 nan nan nan -8.134872 5.475260 24.033613 5.729829 -6.166030 -3.476783 1.803069 -2.518048 -2.441335 5.132629 -3.508230 -15.637472 10.532096 -7.507902 -17.067788 -17.428130 -14.932760 2.403134 -40.358115 -7.448218 13.249194 103.024663 -74.216154 -93.335404 -31.502087 -16.081458 -50.300578 17.196779 9.122865 -5.515824 50.413743 -0.728685 14.959155 -113.728345 67.630041 -89.430022 43.249859 7.102334 -31.682764 
262.538025 -220.489777 84.022484 -120.137025 -4.258705 92.437523 -2.774254 -10.691876 -24.203548 -17.549349 2.049235 48.940532 11.740061 6.327354 -29.563445 nan nan nan 2.235072 3.009060 -14.227623 -5.038441 -11.811306 108.745602 2.444713 -8.701802 -14.300878 nan nan nan -8.696288 5.227247 26.762534 5.234322 -5.184111 -1.588437 2.561584 -2.389046 -4.479375 4.958883 -3.136792 -13.833239 10.770883 -6.091318 -18.475645 -17.670714 -15.376423 2.125844 -38.944297 -5.996917 12.823441 104.783045 -75.086850 -96.805120 -31.432939 -14.399409 -50.407838 17.951145 9.858614 -5.925490 50.424178 -1.994096 14.950731 -113.945402 67.221837 -91.495109 43.320526 4.424197 -29.179133 
260.419525 -218.739731 84.228859 -120.154370 -3.449868 91.648981 -2.811558 -9.116299 -20.451953 -17.925147 -0.339360 48.760049 12.049131 7.380953 -31.313632 nan nan nan 1.407883 3.802033 -17.798299 -4.163746 -11.540797 110.795712 1.706395 -7.382171 -15.596560 nan nan nan -7.536439 3.080206 28.580415 5.141394 -5.168634 -2.618474 2.335283 -2.435935 -4.573171 4.589443 -2.094528 -13.944073 10.129013 -5.655853 -17.547405 -17.010147 -15.296972 1.726056 -39.209372 -5.327685 12.405074 105.034717 -75.673271 -96.941911 -31.763039 -14.653698 -51.478638 17.247114 10.001475 -6.107155 51.269188 -2.029318 14.513783 -114.716710 67.149265 -92.464803 42.811693 4.711580 -30.028423 
258.216187 -217.013031 84.449196 -120.138682 -2.639688 90.990321 -2.813522 -7.717144 -16.640787 -18.010688 -2.819151 48.138332 11.836880 8.429501 -32.839391 nan nan nan 0.438536 4.550285 -21.421683 -3.272108 -11.354731 112.177669 2.090628 -5.864016 -18.981507 nan nan nan -6.371530 1.302733 29.789369 5.156947 -5.011412 -3.237438 2.160361 -2.628419 -4.410905 4.388744 -0.680486 -14.372078 9.153161 -5.643254 -16.782013 -16.530978 -15.659190 1.450188 -39.332285 -5.127061 11.836749 103.560408 -76.182361 -94.451497 -32.867458 -15.353084 -51.459190 16.750525 9.934551 -6.619754 51.547361 -2.134249 13.709473 -115.979804 67.572601 -92.827005 43.560633 4.891427 -29.686842 
255.949295 -215.308197 84.703110 -120.077126 -1.813628 90.520956 -2.694103 -6.546432 -12.803584 -17.921665 -5.308242 46.991050 11.235230 9.198374 -34.010935 nan nan nan -0.735157 5.168824 -25.293696 -2.577631 -11.479108 112.985355 3.138876 -4.526761 -23.243805 nan nan nan -5.307012 -0.205100 30.119945 5.406777 -4.790760 -3.135107 2.091759 -3.173558 -4.048031 4.325482 1.085243 -14.951128 7.782454 -5.718308 -16.220865 -16.298394 -15.838234 1.207537 -39.361971 -5.489509 11.402368 100.671865 -76.622223 -90.558595 -34.017692 -15.893595 -50.831445 16.808134 9.604604 -6.972369 50.778400 -1.637787 13.191516 -116.224527 68.034719 -92.003664 43.604698 4.348740 -27.821381 
253.669083 -213.506409 84.915077 -120.252991 -1.022117 90.731341 -2.243896 -5.577368 -9.638768 -17.603858 -7.190177 45.502463 10.485074 9.708828 -34.774846 nan nan nan -2.072293 5.943751 -30.135098 -2.209531 -11.776426 113.012933 3.819964 -3.132823 -27.079488 nan nan nan -4.544924 -1.626373 29.554652 5.719216 -4.263067 -3.189975 2.125946 -3.598293 -3.542786 4.053421 2.491991 -15.230525 6.546851 -5.965381 -15.611903 -16.213683 -15.890665 1.415519 -39.661090 -5.870685 11.927225 97.892994 -76.800285 -89.398641 -32.555437 -16.232922 -51.049562 16.835539 9.029962 -7.178655 50.035055 -1.332751 13.358104 -117.193344 68.293950 -93.829719 41.005528 4.269710 -26.926784 
251.471268 -211.477997 85.009872 -121.309333 -0.337199 91.570340 -1.547945 -3.661990 -7.204635 -17.584226 -9.201412 44.013101 9.469632 10.408048 -34.964996 nan nan nan -3.394442 7.601035 -35.833698 -2.435255 -12.212737 112.531800 4.567482 -2.816341 -29.445747 nan nan nan -4.572003 -3.516880 28.385193 5.669516 -2.831598 -4.232999 2.210624 -4.144771 -2.052943 4.105308 3.326860 -15.152209 5.531400 -4.972793 -15.090501 -15.537581 -14.457344 1.212377 -39.719116 -7.066259 14.393051 100.039441 -77.967429 -96.058725 -22.122471 -12.551068 -58.735556 16.119786 8.307185 -7.568023 52.254246 0.223850 17.764910 -124.200958 69.760665 -115.270370 28.002369 13.342391 -53.139544 
249.035538 -209.725327 85.432877 -121.156216 0.050269 90.951683 -1.801697 -3.134183 -2.909424 -17.090801 -11.823580 41.777357 8.496290 11.615747 -34.029299 nan nan nan -5.008302 7.454402 -38.662566 -2.621262 -12.228586 110.753925 4.192309 -3.165413 -29.351162 nan nan nan -3.231159 -5.681737 29.513480 5.427100 -3.461535 -5.065205 1.658064 -4.219780 -1.961409 3.657616 4.126682 -15.485999 4.770351 -4.314469 -13.670384 -15.357459 -13.857179 0.977354 -39.128546 -6.875837 14.083497 100.098257 -79.512000 -96.019357 -19.826862 -12.368798 -59.765549 16.139207 8.623260 -7.199436 52.227531 0.852402 18.048492 -122.893532 70.427014 -114.416429 23.046861 11.842692 -52.755264 
246.735352 -207.676361 85.740952 -121.819109 0.553958 91.891323 -1.136244 -2.646178 -0.540927 -16.657178 -12.956085 39.410677 8.012329 11.972846 -32.578310 nan nan nan -6.294969 8.219888 -43.386228 -3.011463 -12.595112 108.860993 2.894383 -4.541914 -26.837646 nan nan nan -3.111433 -7.296006 27.839371 5.701706 -2.850065 -4.820424 1.715792 -4.375209 -1.520861 3.185522 4.710786 -15.724666 4.001591 -3.595270 -12.586172 -14.948663 -13.065246 0.931853 -39.299747 -7.461430 13.996926 95.049294 -80.030615 -90.445725 -22.230743 -12.944325 -57.776090 16.057632 8.018207 -6.723391 52.243962 1.909000 18.711769 -121.882295 70.921116 -112.661655 26.085552 12.445194 -51.288217 
244.282730 -205.640533 86.205414 -122.091393 1.050058 92.338662 -0.777984 -2.551594 2.459979 -15.938197 -14.491236 36.757920 7.038739 12.357401 -30.538773 nan nan nan -7.485102 8.557497 -46.784410 -3.363598 -13.129084 106.195097 1.680928 -5.534173 -24.076415 nan nan nan -2.601392 -8.522149 26.594097 5.962185 -2.696574 -4.282245 1.786908 -4.635213 -1.391206 2.819154 5.248194 -16.115564 3.257508 -2.862727 -11.580477 -14.792073 -12.808850 1.265248 -39.700999 -7.868882 13.947975 89.849744 -79.614193 -85.492897 -25.328382 -14.245500 -56.763144 16.042903 7.539295 -6.605146 51.948020 2.421195 19.195715 -122.271330 71.536374 -112.634809 30.622013 13.893258 -50.894056 
241.741959 -203.621750 86.790413 -122.275531 1.463702 92.464490 -0.787847 -2.551388 5.835000 -14.699593 -16.108726 33.922643 5.396534 12.913155 -28.081296 nan nan nan -8.692298 8.756891 -49.300069 -3.941453 -13.708526 102.966872 1.417910 -6.048822 -22.504530 nan nan nan -1.770587 -9.564389 25.740766 6.038493 -2.756731 -3.727960 1.830004 -5.144494 -1.525125 2.483218 5.970032 -16.352152 2.377276 -2.112888 -10.677219 -15.034772 -12.656433 1.974772 -39.862465 -7.880202 13.879402 86.762271 -79.047973 -82.945806 -26.867826 -15.957642 -56.279746 16.015553 7.333013 -6.434872 51.633770 2.663894 19.575537 -122.494752 72.171539 -113.029907 32.673101 15.327167 -51.376782 
239.175583 -201.558838 87.446785 -122.242234 1.971145 92.467057 -0.672221 -2.699685 9.324886 -13.257373 -17.860536 30.888222 3.235340 13.718762 -25.308544 nan nan nan -9.625249 8.867003 -51.224266 -4.362681 -14.533914 99.263765 2.125583 -6.848315 -22.914389 nan nan nan -0.801399 -10.657032 25.132291 6.169050 -2.889393 -3.411333 1.853837 -5.677071 -1.552680 2.160420 6.908757 -16.506188 1.486572 -1.498518 -9.879243 -15.161598 -12.333809 2.564535 -39.961344 -8.001772 13.951319 82.863694 -79.245739 -79.493816 -25.361393 -16.819062 -56.835711 16.141316 7.073104 -6.186462 51.133979 3.046460 19.921714 -120.934131 73.028078 -112.123745 29.974318 14.971470 -51.412581 
236.598190 -199.430069 88.099998 -122.290815 2.610279 92.814862 -0.299620 -2.850207 12.299295 -11.383452 -19.015666 27.701853 0.835199 13.953058 -22.072332 nan nan nan -10.507912 9.247115 -53.127050 -5.538964 -15.718224 95.380925 2.739410 -6.906518 -22.479935 nan nan nan 0.189740 -11.813318 23.921254 6.426209 -3.004282 -2.674960 1.889767 -6.040468 -1.785846 1.867521 8.125021 -16.342241 0.490815 -1.163201 -9.360991 -15.014095 -11.983361 2.991477 -40.593387 -8.119715 14.074364 76.612259 -79.137104 -72.367699 -24.770113 -17.640909 -55.411742 16.152135 6.690157 -5.827591 50.749678 3.709665 19.995665 -118.898772 73.936639 -109.780083 27.721591 15.009053 -51.206962 
234.018372 -197.132080 88.617889 -122.998809 3.336364 93.858752 0.358868 -2.463768 14.433140 -9.446124 -19.704974 24.384340 -0.919775 13.634179 -18.218560 nan nan nan -10.933690 10.258100 -55.706544 -5.720863 -16.841773 91.059893 2.762860 -8.047524 -21.764540 nan nan nan 0.889515 -12.985026 21.367644 6.765023 -2.652176 -1.424720 1.925934 -6.120165 -1.955604 1.533117 8.959582 -15.558736 -0.288483 -0.478187 -9.230178 -14.855318 -11.456799 3.672059 -41.190796 -8.426822 14.471853 70.867370 -78.746711 -66.655860 -24.087656 -17.302985 -53.875203 16.264061 6.255703 -5.033990 50.486709 4.659805 20.403069 -115.737913 74.889828 -107.537883 26.099162 15.268905 -51.975320 
231.377228 -195.033035 89.294838 -123.448185 3.721913 94.372758 0.105384 -2.431451 17.058014 -6.992604 -20.494333 20.894815 -2.519396 13.684812 -13.552658 nan nan nan -11.396206 10.468308 -57.067146 -6.248872 -17.586162 86.487178 3.124293 -8.220970 -20.693496 nan nan nan 1.861330 -13.978273 20.114324 6.723659 -2.660305 -0.912097 1.960254 -6.325481 -2.415770 1.034900 9.349070 -14.809926 -0.828798 0.383230 -9.134374 -15.041682 -11.160735 4.385862 -41.488031 -8.349618 14.729690 67.276128 -78.480724 -63.784504 -25.582026 -18.230218 -53.804762 16.338298 6.145603 -4.398292 50.164196 5.238875 20.624491 -112.664770 75.832132 -105.593940 25.658415 15.569742 -52.297005 
228.789383 -192.940567 89.927216 -124.018612 4.046759 94.880208 -0.400747 -2.432211 19.413253 -4.589060 -21.037567 17.766698 -3.167806 14.160665 -8.323347 nan nan nan -11.468521 10.620071 -58.157482 -5.794261 -18.088197 81.212386 2.943693 -9.402854 -19.191720 nan nan nan 2.737281 -14.776924 18.866969 6.676537 -2.706810 -0.318590 2.075833 -6.606162 -2.833456 0.462417 9.345370 -14.317446 -1.207456 1.665487 -8.965213 -14.975002 -10.569530 4.936250 -42.309728 -8.684764 15.140146 65.063018 -78.018877 -62.851108 -22.470802 -17.079221 -55.259552 16.192807 6.026394 -3.833331 50.007070 6.160917 21.127982 -108.965108 76.387599 -102.729478 22.742788 14.343479 -51.287593 
